<?xml version="1.0" standalone="no"?>
<svg
viewBox="0 0 800 800"
xmlns:xlink="http://www.w3.org/1999/xlink"
xmlns:dc="http://purl.org/dc/elements/1.1/"
xmlns:cc="http://creativecommons.org/ns#"
xmlns:rdf="http://www.w3.org/1999/02/22-rdf-syntax-ns#"
xmlns:svg="http://www.w3.org/2000/svg"
xmlns="http://www.w3.org/2000/svg"
version="1.1">
    <defs>
        <linearGradient id="linear0" x1="100" y1="100" x2="300" y2="300"
            spreadMethod="pad" gradientUnits="userSpaceOnUse"
            gradientTransform="reset">
            <stop offset="0" stop-color="rgb(255,0,0)" stop-opacity="1"/>
            <stop offset="1" stop-color="rgb(0,255,0)" stop-opacity="1"/>
        </linearGradient>
        <linearGradient id="linear1" x1="0" y1="0" x2="1" y2="1"
            spreadMethod="pad" gradientUnits="reset"
            gradientTransform="reset">
            <stop offset="0" stop-color="rgb(0,255,0)" stop-opacity="1"/>
            <stop offset="1" stop-color="rgb(255,0,0)" stop-opacity="1"/>
        </linearGradient>
    </defs>
    <g>
        <rect width="400" height="400" fill="gray"/>
        <rect x="100" y="100" width="200" height="200" fill="none" stroke="blue"/>
        <path id="path0" fill-rule="nonzero" stroke="none"
            fill="url(#linear0)"
            d="M 100,300 L 300,300 L 100, 100 Z"/>
        <path id="path0" fill-rule="nonzero" stroke="none"
            fill="url(#linear1)"
            d="M 100,100 L 300,300 L 300, 100 Z"/>
    </g>
    <g transform="translate(400,0)">
        <rect width="400" height="400" fill="gray"/>
        <rect x="100" y="100" width="200" height="200" fill="none" stroke="blue"/>
        <path id="path0" fill-rule="nonzero" stroke="none"
            fill="url(#linear0)"
            d="M 100,300 L 300,300 L 100, 100 Z"/>
        <path id="path0" fill-rule="nonzero" stroke="none"
            fill="url(#linear1)"
            d="M 100,100 L 300,300 L 300, 100 Z"/>
    </g>
    <g>
        <rect x="0"   y="400" width="400" height="400" fill="gray"/>
        <rect x="100" y="500" width="200" height="200" fill="none" stroke="blue"/>
        <path id="path0" fill-rule="nonzero" stroke="none"
            fill="url(#linear0)"
            d="M 100,700 L 300,700 L 100, 500 Z"/>
        <path id="path0" fill-rule="nonzero" stroke="none"
            fill="url(#linear1)"
            d="M 100,500 L 300,700 L 300, 500 Z"/>
    </g>
</svg>
