<svg width="406.25" height="206.25" viewBox="0 0 406.25 206.25" xmlns="http://www.w3.org/2000/svg">
    <defs>
        <radialGradient id="radialGradient3100" cx="195.33907" cy="367.99432" r="10.189606" fx="195.33907" fy="367.99432" gradientUnits="userSpaceOnUse" gradientTransform="matrix(0.793492 0 0 1.26025 -124.125 -349.237)" spreadMethod="reflect">
            <stop offset="0" stop-color="#323232"/>
            <stop offset="1" stop-color="#969696"/>
        </radialGradient>
    </defs>
    <path id="path2384" fill="url(#radialGradient3100)" fill-rule="evenodd" stroke="#000000" stroke-opacity="0.196078" stroke-linecap="round" stroke-linejoin="round" d="M 30.875 63.13818 C 17.07501 63.13818 5.87501 81.05816 5.8750005 103.13818 C 5.8750005 125.21818 17.07501 143.13817 30.875 143.13818 C 44.67499 143.13818 55.875 125.21817 55.875 103.13818 C 55.875 81.05818 44.67499 63.13819 30.875 63.13818 Z M 20.875 93.13818 C 26.39495 93.13818 30.875 97.61819 30.875 103.13818 C 30.875 108.65817 26.39494 113.13818 20.875 113.13818 C 15.35506 113.13818 10.875 108.65817 10.875 103.13818 C 10.87501 97.61821 15.35506 93.13818 20.875 93.13818 Z"/>
    <path id="rect2052" fill="url(#radialGradient3100)" fill-rule="evenodd" stroke="none" d="M 45.875 3.1253552 L 380.875 3.1253552 C 391.9207 3.1253552 400.875 12.07966 400.875 23.125355 L 400.875 183.12537 C 400.875 194.17105 391.9207 203.12535 380.875 203.12535 L 45.875 203.12535 C 34.829304 203.12535 25.875 194.17105 25.875 183.12537 L 25.875 23.125355 C 25.875 12.07966 34.829304 3.1253552 45.875 3.1253552 Z"/>
</svg>
