<svg width="466.11172" height="265.35126" viewBox="0 0 466.11172 265.35126" xmlns="http://www.w3.org/2000/svg">
    <defs>
        <radialGradient id="radialGradient4423" cx="254.82332" cy="253.04457" r="169.87473" fx="254.82332" fy="253.04457" gradientUnits="userSpaceOnUse" gradientTransform="matrix(1 0 0 0.5929308 0 103.006645)">
            <stop offset="0" stop-color="#ea0000"/>
            <stop offset="1" stop-color="#730000"/>
        </radialGradient>
        <linearGradient id="linearGradient4425" x1="192.26094" y1="247.71747" x2="229.93037" y2="303.65195" gradientUnits="userSpaceOnUse" spreadMethod="reflect">
            <stop offset="0" stop-color="#858585"/>
            <stop offset="0.5" stop-color="#ffffff"/>
            <stop offset="1" stop-color="#939393"/>
        </linearGradient>
        <linearGradient id="linearGradient4427" x1="365.06906" y1="318.85867" x2="375.43167" y2="352.76584" gradientUnits="userSpaceOnUse" gradientTransform="matrix(0.9061818 1.3321141 -1.3321141 0.9061818 401.82648 -748.8754)" spreadMethod="reflect">
            <stop offset="0" stop-color="#6e6e6e"/>
            <stop offset="0.5" stop-color="#ffffff"/>
            <stop offset="1" stop-color="#a1a1a1"/>
        </linearGradient>
        <linearGradient id="linearGradient4429" x1="365.06906" y1="318.85867" x2="375.43167" y2="352.76584" gradientUnits="userSpaceOnUse" gradientTransform="matrix(0.9061818 1.3321141 -1.3321141 0.9061818 401.82648 -748.8754)" spreadMethod="reflect">
            <stop offset="0" stop-color="#6e6e6e"/>
            <stop offset="0.5" stop-color="#ffffff"/>
            <stop offset="1" stop-color="#a1a1a1"/>
        </linearGradient>
        <radialGradient id="radialGradient4431" cx="142.22385" cy="348.25116" r="7.704379" fx="142.22385" fy="348.25116" gradientUnits="userSpaceOnUse" gradientTransform="matrix(0.6368538 0.2626287 -0.6549943 1.5883093 281.88657 -244.82211)">
            <stop offset="0" stop-color="#ffffff"/>
            <stop offset="0.6888889" stop-color="#bfbfbf"/>
            <stop offset="1" stop-color="#525252"/>
        </radialGradient>
        <linearGradient id="linearGradient4433" x1="181.65837" y1="346.63245" x2="181.87494" y2="356.53757" gradientUnits="userSpaceOnUse" gradientTransform="matrix(1.1799262 1.0970267 -1.0970267 1.1799262 507.31085 -881.90204)">
            <stop offset="0" stop-color="#502d16"/>
            <stop offset="1" stop-color="#2a170b"/>
        </linearGradient>
        <linearGradient id="linearGradient4435" x1="181.65837" y1="346.63245" x2="181.87494" y2="356.53757" gradientUnits="userSpaceOnUse" gradientTransform="matrix(1.1799262 1.0970267 -1.0970267 1.1799262 507.31085 -881.90204)">
            <stop offset="0" stop-color="#502d16"/>
            <stop offset="1" stop-color="#2a170b"/>
        </linearGradient>
        <linearGradient id="linearGradient4437" x1="181.65837" y1="346.63245" x2="181.87494" y2="356.53757" gradientUnits="userSpaceOnUse" gradientTransform="matrix(1.1799262 1.0970267 -1.0970267 1.1799262 507.31085 -881.90204)">
            <stop offset="0" stop-color="#502d16"/>
            <stop offset="1" stop-color="#2a170b"/>
        </linearGradient>
        <linearGradient id="linearGradient4439" x1="181.65837" y1="346.63245" x2="181.87494" y2="356.53757" gradientUnits="userSpaceOnUse" gradientTransform="matrix(1.1799262 1.0970267 -1.0970267 1.1799262 507.31085 -881.90204)">
            <stop offset="0" stop-color="#502d16"/>
            <stop offset="1" stop-color="#2a170b"/>
        </linearGradient>
        <linearGradient id="linearGradient4441" x1="181.65837" y1="346.63245" x2="181.87494" y2="356.53757" gradientUnits="userSpaceOnUse" gradientTransform="matrix(1.1799262 1.0970267 -1.0970267 1.1799262 507.31085 -881.90204)">
            <stop offset="0" stop-color="#502d16"/>
            <stop offset="1" stop-color="#2a170b"/>
        </linearGradient>
        <linearGradient id="linearGradient4443" x1="181.65837" y1="346.63245" x2="181.87494" y2="356.53757" gradientUnits="userSpaceOnUse" gradientTransform="matrix(1.1799262 1.0970267 -1.0970267 1.1799262 507.31085 -881.90204)">
            <stop offset="0" stop-color="#502d16"/>
            <stop offset="1" stop-color="#2a170b"/>
        </linearGradient>
        <linearGradient id="linearGradient4445" x1="181.65837" y1="346.63245" x2="181.87494" y2="356.53757" gradientUnits="userSpaceOnUse" gradientTransform="matrix(1.1799262 1.0970267 -1.0970267 1.1799262 507.31085 -881.90204)">
            <stop offset="0" stop-color="#502d16"/>
            <stop offset="1" stop-color="#2a170b"/>
        </linearGradient>
        <linearGradient id="linearGradient4447" x1="181.65837" y1="346.63245" x2="181.87494" y2="356.53757" gradientUnits="userSpaceOnUse" gradientTransform="matrix(1.1799262 1.0970267 -1.0970267 1.1799262 507.31085 -881.90204)">
            <stop offset="0" stop-color="#502d16"/>
            <stop offset="1" stop-color="#2a170b"/>
        </linearGradient>
        <linearGradient id="linearGradient4449" x1="181.65837" y1="346.63245" x2="181.87494" y2="356.53757" gradientUnits="userSpaceOnUse" gradientTransform="matrix(1.1799262 1.0970267 -1.0970267 1.1799262 507.31085 -881.90204)">
            <stop offset="0" stop-color="#502d16"/>
            <stop offset="1" stop-color="#2a170b"/>
        </linearGradient>
        <linearGradient id="linearGradient4451" x1="181.65837" y1="346.63245" x2="181.87494" y2="356.53757" gradientUnits="userSpaceOnUse" gradientTransform="matrix(1.1799262 1.0970267 -1.0970267 1.1799262 507.31085 -881.90204)">
            <stop offset="0" stop-color="#502d16"/>
            <stop offset="1" stop-color="#2a170b"/>
        </linearGradient>
        <linearGradient id="linearGradient4453" x1="181.65837" y1="346.63245" x2="181.87494" y2="356.53757" gradientUnits="userSpaceOnUse" gradientTransform="matrix(1.1799262 1.0970267 -1.0970267 1.1799262 507.31085 -881.90204)">
            <stop offset="0" stop-color="#502d16"/>
            <stop offset="1" stop-color="#2a170b"/>
        </linearGradient>
        <linearGradient id="linearGradient4455" x1="181.65837" y1="346.63245" x2="181.87494" y2="356.53757" gradientUnits="userSpaceOnUse" gradientTransform="matrix(1.1799262 1.0970267 -1.0970267 1.1799262 507.31085 -881.90204)">
            <stop offset="0" stop-color="#502d16"/>
            <stop offset="1" stop-color="#2a170b"/>
        </linearGradient>
        <linearGradient id="linearGradient4457" x1="181.65837" y1="346.63245" x2="181.87494" y2="356.53757" gradientUnits="userSpaceOnUse" gradientTransform="matrix(1.1799262 1.0970267 -1.0970267 1.1799262 507.31085 -881.90204)">
            <stop offset="0" stop-color="#502d16"/>
            <stop offset="1" stop-color="#2a170b"/>
        </linearGradient>
        <linearGradient id="linearGradient4459" x1="181.65837" y1="346.63245" x2="181.87494" y2="356.53757" gradientUnits="userSpaceOnUse" gradientTransform="matrix(1.1799262 1.0970267 -1.0970267 1.1799262 507.31085 -881.90204)">
            <stop offset="0" stop-color="#502d16"/>
            <stop offset="1" stop-color="#2a170b"/>
        </linearGradient>
        <linearGradient id="linearGradient4461" x1="181.65837" y1="346.63245" x2="181.87494" y2="356.53757" gradientUnits="userSpaceOnUse" gradientTransform="matrix(1.1799262 1.0970267 -1.0970267 1.1799262 507.31085 -881.90204)">
            <stop offset="0" stop-color="#502d16"/>
            <stop offset="1" stop-color="#2a170b"/>
        </linearGradient>
        <linearGradient id="linearGradient4463" x1="181.65837" y1="346.63245" x2="181.87494" y2="356.53757" gradientUnits="userSpaceOnUse" gradientTransform="matrix(1.1799262 1.0970267 -1.0970267 1.1799262 507.31085 -881.90204)">
            <stop offset="0" stop-color="#502d16"/>
            <stop offset="1" stop-color="#2a170b"/>
        </linearGradient>
        <linearGradient id="linearGradient4465" x1="181.65837" y1="346.63245" x2="181.87494" y2="356.53757" gradientUnits="userSpaceOnUse" gradientTransform="matrix(1.1799262 1.0970267 -1.0970267 1.1799262 507.31085 -881.90204)">
            <stop offset="0" stop-color="#502d16"/>
            <stop offset="1" stop-color="#2a170b"/>
        </linearGradient>
        <linearGradient id="linearGradient4467" x1="181.65837" y1="346.63245" x2="181.87494" y2="356.53757" gradientUnits="userSpaceOnUse" gradientTransform="matrix(1.1799262 1.0970267 -1.0970267 1.1799262 507.31085 -881.90204)">
            <stop offset="0" stop-color="#502d16"/>
            <stop offset="1" stop-color="#2a170b"/>
        </linearGradient>
        <linearGradient id="linearGradient4469" x1="181.65837" y1="346.63245" x2="181.87494" y2="356.53757" gradientUnits="userSpaceOnUse" gradientTransform="matrix(1.1799262 1.0970267 -1.0970267 1.1799262 507.31085 -881.90204)">
            <stop offset="0" stop-color="#502d16"/>
            <stop offset="1" stop-color="#2a170b"/>
        </linearGradient>
        <linearGradient id="linearGradient4471" x1="181.65837" y1="346.63245" x2="181.87494" y2="356.53757" gradientUnits="userSpaceOnUse" gradientTransform="matrix(1.1799262 1.0970267 -1.0970267 1.1799262 507.31085 -881.90204)">
            <stop offset="0" stop-color="#502d16"/>
            <stop offset="1" stop-color="#2a170b"/>
        </linearGradient>
        <linearGradient id="linearGradient4473" x1="181.65837" y1="346.63245" x2="181.87494" y2="356.53757" gradientUnits="userSpaceOnUse" gradientTransform="matrix(1.1799262 1.0970267 -1.0970267 1.1799262 507.31085 -881.90204)">
            <stop offset="0" stop-color="#502d16"/>
            <stop offset="1" stop-color="#2a170b"/>
        </linearGradient>
        <linearGradient id="linearGradient4475" x1="181.65837" y1="346.63245" x2="181.87494" y2="356.53757" gradientUnits="userSpaceOnUse" gradientTransform="matrix(1.1799262 1.0970267 -1.0970267 1.1799262 507.31085 -881.90204)">
            <stop offset="0" stop-color="#502d16"/>
            <stop offset="1" stop-color="#2a170b"/>
        </linearGradient>
        <linearGradient id="linearGradient4477" x1="181.65837" y1="346.63245" x2="181.87494" y2="356.53757" gradientUnits="userSpaceOnUse" gradientTransform="matrix(1.1799262 1.0970267 -1.0970267 1.1799262 507.31085 -881.90204)">
            <stop offset="0" stop-color="#502d16"/>
            <stop offset="1" stop-color="#2a170b"/>
        </linearGradient>
        <linearGradient id="linearGradient4479" x1="181.65837" y1="346.63245" x2="181.87494" y2="356.53757" gradientUnits="userSpaceOnUse" gradientTransform="matrix(1.1799262 1.0970267 -1.0970267 1.1799262 507.31085 -881.90204)">
            <stop offset="0" stop-color="#502d16"/>
            <stop offset="1" stop-color="#2a170b"/>
        </linearGradient>
        <radialGradient id="radialGradient4481" cx="243.79347" cy="348.81863" r="1.042881" fx="243.79347" fy="348.81863" gradientUnits="userSpaceOnUse" gradientTransform="matrix(-3.972643 4.449254 -6.049104 -6.954417 3359.3708 1040.8406)">
            <stop offset="0" stop-color="#ffffff"/>
            <stop offset="1" stop-color="#ffffff" stop-opacity="0"/>
        </radialGradient>
        <radialGradient id="radialGradient4483" cx="82.12975" cy="294.44315" r="34.702995" fx="82.12975" fy="294.44315" gradientUnits="userSpaceOnUse" gradientTransform="matrix(1.4494299 0 0 1.4499062 301.6667 -377.63602)">
            <stop offset="0" stop-color="#ffc154"/>
            <stop offset="0.7185185" stop-color="#e41e18"/>
            <stop offset="1" stop-color="#a50000"/>
        </radialGradient>
        <linearGradient id="linearGradient4485" x1="394.93762" y1="25.35121" x2="422.18365" y2="60.37964" gradientUnits="userSpaceOnUse">
            <stop offset="0" stop-color="#ffffff"/>
            <stop offset="1" stop-color="#ffffff" stop-opacity="0"/>
        </linearGradient>
        <filter id="filter6426" x="-0.1" y="-0.1" width="1.2" height="1.2">
            <feGaussianBlur color-interpolation-filters="linearRGB" in="SourceGraphic" stdDeviation="3.1054595 3.1054595" result="result1"/>
        </filter>
        <filter id="filter4333" x="-0.1" y="-0.1" width="1.2" height="1.2">
            <feGaussianBlur color-interpolation-filters="linearRGB" in="SourceGraphic" stdDeviation="4.595299 4.595299" result="result1"/>
        </filter>
        <filter id="filter3321" x="-0.1" y="-0.1" width="1.2" height="1.2">
            <feGaussianBlur color-interpolation-filters="linearRGB" in="SourceGraphic" stdDeviation="3.84278 3.84278" result="result1"/>
        </filter>
        <filter id="filter6541" x="-0.1" y="-0.1" width="1.2" height="1.2">
            <feGaussianBlur color-interpolation-filters="linearRGB" in="SourceGraphic" stdDeviation="3.1069038 3.1069038" result="result1"/>
        </filter>
        <filter id="filter11105" x="-0.1" y="-0.1" width="1.2" height="1.2">
            <feGaussianBlur color-interpolation-filters="linearRGB" in="SourceGraphic" stdDeviation="1.4170139 1.4170139" result="result1"/>
        </filter>
        <filter id="filter11073" x="-0.1" y="-0.1" width="1.2" height="1.2">
            <feGaussianBlur color-interpolation-filters="linearRGB" in="SourceGraphic" stdDeviation="1.3157986 1.3157986" result="result1"/>
        </filter>
        <filter id="filter6450" x="-0.11691982" y="-0.06080088" width="1.2338396" height="1.1216018">
            <feGaussianBlur color-interpolation-filters="linearRGB" in="SourceGraphic" stdDeviation="10.629343 10.629343" result="result1"/>
        </filter>
        <clipPath id="clipPath6467">
            <path id="path6469" fill="#000000" stroke="none" d="M 171.59375 -167.8125 L 153.4375 -131.09375 C 153.4375 -131.09375 240.05975 -44.59221 260.53125 61.53125 C 263.78903 59.713413 267.5381 58.6875 271.53125 58.6875 C 283.99673 58.687504 294.11734 68.78455 294.15625 81.25 L 294.15625 81.3125 C 294.15625 93.802826 284.02158 103.93749 271.53125 103.93749 C 269.20004 103.93749 266.9604 103.59315 264.84375 102.9375 C 265.00284 118.53432 263.43643 134.33614 259.71875 150.1875 C 279.93176 155.71176 336.35553 161.63753 367.0625 234.84375 C 388.95187 159.67792 354.1571 -29.134108 171.59375 -167.8125 Z"/>
        </clipPath>
        <clipPath id="clipPath4786">
            <path id="path4788" fill="#000000" stroke="none" d="M 224.17564 -209.30998 C 221.72949 -213.53387 218.16339 -217.30788 213.9816 -219.55347 C 202.34532 -225.8021 180.53665 -224.10152 154.58923 -168.22542 C 154.42586 -167.89731 143.25958 -138.67763 141.98721 -135.44942 C 139.95143 -130.28424 120.16157 -101.91122 110.69745 -97.44455 C 110.69745 -97.44455 113.87518 -105.09026 109.55612 -112.57113 C 105.23703 -120.052 100.73212 -122.38448 93.31641 -116.10812 C 85.90072 -109.83175 92.58472 -88.96496 104.22097 -82.71633 C 115.85723 -76.46771 137.5717 -77.0278 163.5191 -132.90392 C 163.69067 -133.24843 174.957 -163.62769 176.21536 -166.8204 C 178.2432 -171.96538 197.86458 -200.1136 207.37135 -204.74805 C 207.13663 -204.13504 204.6186 -194.83144 208.80272 -187.58437 C 213.12178 -180.10352 218.73325 -181.23108 226.14894 -187.50743 C 230.89961 -191.52823 228.53616 -201.78046 224.17564 -209.30998 Z"/>
        </clipPath>
        <clipPath id="clipPath11119">
            <path id="rect11121" fill="#000000" stroke="none" d="M 247.13382 -157.33484 L 283.5498 -157.33484 L 283.5498 -120.91884 L 247.13382 -120.91884 Z"/>
        </clipPath>
        <clipPath id="clipPath11115">
            <path id="rect11117" fill="#000000" stroke="none" d="M 247.13382 -157.33484 L 283.5498 -157.33484 L 283.5498 -120.91884 L 247.13382 -120.91884 Z"/>
        </clipPath>
        <clipPath id="clipPath11111">
            <path id="rect11113" fill="#000000" stroke="none" d="M 247.13382 -157.33484 L 283.5498 -157.33484 L 283.5498 -120.91884 L 247.13382 -120.91884 Z"/>
        </clipPath>
        <clipPath id="clipPath6461">
            <path id="path6463" fill="#000000" stroke="none" d="M 171.59375 -167.8125 L 153.4375 -131.09375 C 153.4375 -131.09375 240.05975 -44.59221 260.53125 61.53125 C 263.78903 59.713413 267.5381 58.6875 271.53125 58.6875 C 283.99673 58.687504 294.11734 68.78455 294.15625 81.25 L 294.15625 81.3125 C 294.15625 93.802826 284.02158 103.93749 271.53125 103.93749 C 269.20004 103.93749 266.9604 103.59315 264.84375 102.9375 C 265.00284 118.53432 263.43643 134.33614 259.71875 150.1875 C 279.93176 155.71176 336.35553 161.63753 367.0625 234.84375 C 388.95187 159.67792 354.1571 -29.134108 171.59375 -167.8125 Z"/>
        </clipPath>
    </defs>
    <g id="g4337" transform="matrix(0.658246 0 0 0.658246 300.4726 71.37439)">
        <g filter="url(#filter6426)" transform="matrix(2.0763664 0 0 1.9761102 -626.8155 -401.18494)">
            <path id="path5427" fill="#2e2e2e" stroke="none" d="M 423.07208 253.04457 C 423.07208 307.77487 347.74454 352.14255 254.82332 352.14255 C 161.90211 352.14255 86.574585 307.77487 86.574585 253.04457 C 86.574585 198.31427 161.90211 153.94661 254.82332 153.94661 C 347.74454 153.94661 423.07208 198.31427 423.07208 253.04457 Z"/>
        </g>
        <g transform="matrix(2.0763664 0 0 1.9761102 -632.9415 -409.353)">
            <path id="path2502" fill="url(#radialGradient4423)" stroke="url(#linearGradient4425)" stroke-width="3.252" d="M 423.07208 253.04457 C 423.07208 307.77487 347.74454 352.14255 254.82332 352.14255 C 161.90211 352.14255 86.574585 307.77487 86.574585 253.04457 C 86.574585 198.31427 161.90211 153.94661 254.82332 153.94661 C 347.74454 153.94661 423.07208 198.31427 423.07208 253.04457 Z"/>
        </g>
        <g id="g3269" filter="url(#filter4333)" opacity="0.67777777" transform="matrix(1 0 0 1 -365.75714 195.63753)">
            <g clip-path="url(#clipPath6467)" transform="matrix(0.6175309 -0.8204903 0.8204903 0.6175309 170.59642 106.27468)">
                <path id="path2686" fill="#000000" stroke="url(#linearGradient4427)" stroke-width="5.3166814" d="M 171.59375 -167.8125 L 153.4375 -131.09375 C 153.4375 -131.09375 240.05975 -44.59221 260.53125 61.53125 C 263.78903 59.713413 267.5381 58.6875 271.53125 58.6875 C 283.99673 58.687504 294.11734 68.78455 294.15625 81.25 L 294.15625 81.3125 C 294.15625 93.802826 284.02158 103.93749 271.53125 103.93749 C 269.20004 103.93749 266.9604 103.59315 264.84375 102.9375 C 265.00284 118.53432 263.43643 134.33614 259.71875 150.1875 C 279.93176 155.71176 336.35553 161.63753 367.0625 234.84375 C 388.95187 159.67792 354.1571 -29.134108 171.59375 -167.8125 Z"/>
            </g>
            <path id="path2692" fill="#000000" stroke="none" d="M -4.5415554 -94.43634 C -2.2808757 -81.772896 -6.0597057 -70.50177 -12.984196 -69.25448 C -19.908676 -68.00718 -27.359705 -77.25551 -29.631197 -89.91701 C -31.902683 -102.57851 -28.135475 -113.86407 -21.214537 -115.13113 C -14.293596 -116.39819 -6.8367057 -107.16749 -4.5544057 -94.50796"/>
            <path id="path2694" fill="#000000" stroke="#5f3f31" stroke-width="1.2656728" d="M -9.126165 -114.14632 C -5.9465256 -114.71376 -2.1153357 -108.04638 -0.5360456 -99.19701 L 0.8299044 -91.54299 C 2.4091845 -82.69363 1.1208344 -75.11259 -2.0588157 -74.545135 C -5.238466 -73.977684 -9.069655 -80.645065 -10.648946 -89.49444 L -12.014906 -97.14846 C -13.594196 -105.99781 -12.305806 -113.57886 -9.126165 -114.14632 Z"/>
            <path id="path2696" fill="#000000" stroke="#5f3f31" stroke-width="1.2656728" d="M -2.6111956 -115.30898 C 0.56843436 -115.87643 4.3996243 -109.20906 5.9789042 -100.35968 L 7.3448744 -92.705666 C 8.924154 -83.85631 7.6357937 -76.27527 4.4561543 -75.707825 C 1.2765044 -75.140366 -2.5546956 -81.807755 -4.1339955 -90.65712 L -5.4999456 -98.311134 C -7.079236 -107.16051 -5.7908454 -114.74155 -2.6111956 -115.30898 Z"/>
            <path id="path2698" fill="#000000" stroke="#5f3f31" stroke-width="1.2656728" d="M 3.9037745 -116.47167 C 7.083405 -117.03912 10.914594 -110.37173 12.493874 -101.52236 L 13.859844 -93.86836 C 15.439124 -85.018974 14.150755 -77.43794 10.971104 -76.8705 C 7.7914743 -76.303055 3.9602642 -82.97042 2.3809743 -91.81979 L 1.0150244 -99.47381 C -0.56426567 -108.32318 0.7241244 -115.90421 3.9037745 -116.47167 Z"/>
            <path id="path2700" fill="#000000" stroke="#5f3f31" stroke-width="1.2656728" d="M 10.418724 -117.63435 C 13.598374 -118.2018 17.429554 -111.53442 19.008844 -102.68504 L 20.374794 -95.03103 C 21.954084 -86.181656 20.665714 -78.60063 17.486065 -78.03317 C 14.306424 -77.46573 10.475224 -84.1331 8.895934 -92.98249 L 7.5299845 -100.63649 C 5.9506946 -109.48585 7.2390943 -117.0669 10.418724 -117.63435 Z"/>
            <path id="path2702" fill="#000000" stroke="#5f3f31" stroke-width="1.2656728" d="M 16.933695 -118.79703 C 20.113335 -119.36447 23.944525 -112.6971 25.523804 -103.84773 L 26.889765 -96.19371 C 28.469053 -87.34433 27.180676 -79.763306 24.001034 -79.19586 C 20.821384 -78.62841 16.990185 -85.29579 15.410894 -94.145164 L 14.044944 -101.79917 C 12.465653 -110.64854 13.754045 -118.22958 16.933695 -118.79703 Z"/>
            <path id="path2704" fill="#000000" stroke="#5f3f31" stroke-width="1.2656728" d="M 23.448645 -119.95971 C 26.628294 -120.52715 30.459484 -113.85977 32.038765 -105.010414 L 33.404724 -97.3564 C 34.984013 -88.50703 33.695644 -80.925995 30.515993 -80.35854 C 27.336353 -79.79109 23.505154 -86.45848 21.925863 -95.307846 L 20.559914 -102.961845 C 18.980623 -111.81123 20.269014 -119.39226 23.448645 -119.95971 Z"/>
            <path id="path2706" fill="#000000" stroke="#5f3f31" stroke-width="1.2656728" d="M 29.963615 -121.12238 C 33.143265 -121.68984 36.974445 -115.02246 38.553722 -106.17308 L 39.919685 -98.51909 C 41.498974 -89.6697 40.210606 -82.08867 37.030964 -81.521225 C 33.851315 -80.95378 30.020113 -87.62115 28.440825 -96.47053 L 27.074875 -104.12453 C 25.495584 -112.97391 26.783964 -120.55494 29.963615 -121.12238 Z"/>
            <path id="path2708" fill="#000000" stroke="#5f3f31" stroke-width="1.2656728" d="M 36.478573 -122.28508 C 39.658222 -122.85254 43.489403 -116.18514 45.0687 -107.33576 L 46.434643 -99.68175 C 48.013935 -90.83238 46.725567 -83.25136 43.54593 -82.6839 C 40.366276 -82.116455 36.535072 -88.783844 34.955795 -97.6332 L 33.589825 -105.28721 C 32.010544 -114.13659 33.298923 -121.71761 36.478573 -122.28508 Z"/>
            <path id="path2710" fill="#000000" stroke="#5f3f31" stroke-width="1.2656728" d="M 42.993538 -123.447754 C 46.173172 -124.01518 50.00438 -117.34782 51.583664 -108.49845 L 52.949608 -100.844444 C 54.528908 -91.99506 53.240524 -84.41403 50.060883 -83.84659 C 46.881245 -83.27913 43.050045 -89.94652 41.470764 -98.795876 L 40.104794 -106.44989 C 38.525513 -115.29926 39.813892 -122.88031 42.993538 -123.447754 Z"/>
            <path id="path2712" fill="#000000" stroke="#5f3f31" stroke-width="1.2656728" d="M 49.508495 -124.61042 C 52.688145 -125.17788 56.519325 -118.5105 58.09861 -109.66113 L 59.46457 -102.00712 C 61.043865 -93.15775 59.755493 -85.57671 56.57584 -85.00926 C 53.396202 -84.44182 49.565014 -91.1092 47.985714 -99.95857 L 46.619762 -107.61257 C 45.040478 -116.46196 46.328854 -124.042984 49.508495 -124.61042 Z"/>
            <path id="path2714" fill="#000000" stroke="#5f3f31" stroke-width="1.2656728" d="M 56.023464 -125.77311 C 59.203102 -126.34055 63.034298 -119.67318 64.61359 -110.8238 L 65.979546 -103.169815 C 67.55882 -94.32043 66.27045 -86.739395 63.090813 -86.17194 C 59.911163 -85.6045 56.079952 -92.27187 54.500687 -101.12125 L 53.13471 -108.77525 C 51.555435 -117.62462 52.843822 -125.20568 56.023464 -125.77311 Z"/>
            <path id="path2716" fill="#000000" stroke="#5f3f31" stroke-width="1.2656728" d="M 62.538425 -126.93579 C 65.71807 -127.50325 69.549255 -120.83586 71.12855 -111.98648 L 72.49449 -104.33247 C 74.073784 -95.48311 72.785416 -87.90208 69.605774 -87.33462 C 66.42613 -86.76717 62.594925 -93.434555 61.015644 -102.28392 L 59.649685 -109.93793 C 58.070396 -118.7873 59.35878 -126.36834 62.538425 -126.93579 Z"/>
            <path id="path2718" fill="#000000" stroke="#5f3f31" stroke-width="1.2656728" d="M 69.05339 -128.09848 C 72.23303 -128.66592 76.064224 -121.99853 77.6435 -113.14916 L 79.00946 -105.49516 C 80.588745 -96.64578 79.300385 -89.06476 76.12074 -88.49729 C 72.94109 -87.92985 69.109886 -94.59723 67.530594 -103.4466 L 66.16466 -111.10061 C 64.58536 -119.94999 65.87374 -127.53103 69.05339 -128.09848 Z"/>
            <path id="path2720" fill="#000000" stroke="#5f3f31" stroke-width="1.2656728" d="M 75.56835 -129.26115 C 78.74799 -129.8286 82.579185 -123.16121 84.15848 -114.31185 L 85.52444 -106.65783 C 87.103714 -97.80848 85.815346 -90.22743 82.6357 -89.65997 C 79.45606 -89.09253 75.62485 -95.759926 74.04556 -104.60928 L 72.67961 -112.2633 C 71.10033 -121.11267 72.38872 -128.69371 75.56835 -129.26115 Z"/>
            <path id="path2722" fill="#000000" stroke="#5f3f31" stroke-width="1.2656728" d="M 82.083305 -130.42383 C 85.26296 -130.99129 89.09415 -124.3239 90.67343 -115.47451 L 92.03938 -107.820526 C 93.61867 -98.971146 92.330315 -91.39011 89.150665 -90.82267 C 85.971016 -90.2552 82.13982 -96.9226 80.56053 -105.77197 L 79.194565 -113.42597 C 77.615295 -122.27534 78.90367 -129.85638 82.083305 -130.42383 Z"/>
            <path id="path2724" fill="#000000" stroke="#5f3f31" stroke-width="1.2656728" d="M 88.598274 -131.58652 C 91.77792 -132.15398 95.609116 -125.48658 97.18839 -116.63721 L 98.554344 -108.98319 C 100.13363 -100.13383 98.84525 -92.55279 95.66563 -91.98534 C 92.48598 -91.4179 88.654785 -98.08527 87.07549 -106.93466 L 85.709526 -114.58866 C 84.13024 -123.43802 85.418625 -131.01906 88.598274 -131.58652 Z"/>
            <path id="path2726" fill="#000000" stroke="#5f3f31" stroke-width="1.2656728" d="M 95.11324 -132.7492 C 98.29289 -133.31665 102.12407 -126.64924 103.70335 -117.79989 L 105.06931 -110.14588 C 106.6486 -101.29651 105.36023 -93.71547 102.18058 -93.14802 C 99.00095 -92.580574 95.169754 -99.24794 93.590454 -108.09732 L 92.224495 -115.75134 C 90.64521 -124.60071 91.93359 -132.18175 95.11324 -132.7492 Z"/>
            <path id="path2728" fill="#000000" stroke="#5f3f31" stroke-width="1.2656728" d="M 101.628204 -133.91188 C 104.80783 -134.47932 108.63903 -127.81194 110.218315 -118.96256 L 111.58429 -111.30858 C 113.16356 -102.4592 111.8752 -94.87814 108.69555 -94.3107 C 105.5159 -93.74325 101.68471 -100.41064 100.10541 -109.26001 L 98.73946 -116.91401 C 97.16018 -125.76339 98.448555 -133.34444 101.628204 -133.91188 Z"/>
            <path id="path2730" fill="#000000" stroke="#5f3f31" stroke-width="1.2656728" d="M 108.14317 -135.07455 C 111.32281 -135.64201 115.154 -128.97462 116.73327 -120.12526 L 118.09924 -112.47124 C 119.67851 -103.62186 118.39015 -96.04084 115.2105 -95.47339 C 112.03086 -94.90593 108.19967 -101.57331 106.62038 -110.42269 L 105.25441 -118.076706 C 103.67513 -126.92607 104.96351 -134.50711 108.14317 -135.07455 Z"/>
            <path id="path2732" fill="#000000" stroke="#5f3f31" stroke-width="1.2656728" d="M 114.65813 -136.23724 C 117.837776 -136.80469 121.66895 -130.1373 123.24824 -121.28793 L 124.6142 -113.63393 C 126.19349 -104.78454 124.90511 -97.20351 121.72548 -96.63607 C 118.54583 -96.06862 114.71464 -102.73601 113.13534 -111.58538 L 111.76937 -119.23937 C 110.1901 -128.08875 111.47848 -135.66978 114.65813 -136.23724 Z"/>
            <path id="path2734" fill="#000000" stroke="#5f3f31" stroke-width="1.2656728" d="M 121.17308 -137.39992 C 124.35274 -137.96736 128.18391 -131.29997 129.7632 -122.45061 L 131.12917 -114.79661 C 132.70845 -105.94723 131.42007 -98.366196 128.24043 -97.79874 C 125.06079 -97.23131 121.22959 -103.89867 119.65029 -112.74804 L 118.28435 -120.40205 C 116.70505 -129.25143 117.99344 -136.83247 121.17308 -137.39992 Z"/>
            <path id="path2736" fill="#000000" stroke="#5f3f31" stroke-width="1.2656728" d="M 127.68806 -138.56259 C 130.86769 -139.13004 134.69888 -132.46266 136.27817 -123.61329 L 137.64413 -115.95929 C 139.22342 -107.10991 137.93504 -99.52888 134.7554 -98.961426 C 131.57574 -98.39398 127.74455 -105.06136 126.16526 -113.910736 L 124.7993 -121.56472 C 123.22002 -130.41411 124.50841 -137.99515 127.68806 -138.56259 Z"/>
            <path id="path2738" fill="#000000" stroke="#5f3f31" stroke-width="1.2656728" d="M 134.203 -139.72527 C 137.38266 -140.29272 141.21384 -133.62535 142.79314 -124.77597 L 144.15907 -117.12196 C 145.73837 -108.27259 144.45 -100.69156 141.27036 -100.12411 C 138.09071 -99.556656 134.25952 -106.22404 132.68024 -115.07341 L 131.31427 -122.72742 C 129.73499 -131.5768 131.02338 -139.15782 134.203 -139.72527 Z"/>
            <path id="path2740" fill="#000000" stroke="#5f3f31" stroke-width="1.2656728" d="M 140.71799 -140.88795 C 143.89761 -141.4554 147.7288 -134.78802 149.30809 -125.93864 L 150.67406 -118.28466 C 152.25334 -109.43527 150.96497 -101.854225 147.78532 -101.28679 C 144.60568 -100.71934 140.77448 -107.38672 139.19519 -116.23609 L 137.82924 -123.89009 C 136.24994 -132.73949 137.53833 -140.32051 140.71799 -140.88795 Z"/>
            <path id="path2742" fill="#000000" stroke="none" d="M -13.757206 -69.67425 C -20.400646 -69.50668 -26.100746 -71.727615 -26.480625 -74.63168 C -26.860516 -77.53567 -21.777105 -80.0286 -15.133667 -80.19616 C -8.705775 -80.35829 -8.932305 -88.447815 -7.2562957 -78.39274 C -5.8830056 -70.15387 -6.958726 -69.1124 -13.587716 -68.9361"/>
            <g filter="url(#filter3321)" transform="matrix(0.1788 0.01494951 -0.01632517 0.1952532 -42.259834 -139.17189)">
                <path id="path2744" fill="#000000" stroke="none" d="M 142.36876 165.39221 L 130.68164 163.08269 L 141.15363 231.4999 L 121.92367 164.90726 L 112.13114 171.69173 L 114.44068 160.0046 L 45.393494 171.10654 L 112.6161 151.24663 L 105.83164 141.4541 L 117.51875 143.76364 L 107.67672 77.8662 L 126.27672 141.93906 L 136.06924 135.1546 L 133.75972 146.8417 L 201.547 140.14944 L 135.58429 155.59969 L 142.36876 165.39221 Z"/>
            </g>
            <g clip-path="url(#clipPath4786)" transform="matrix(0.6175309 -0.8204903 0.8204903 0.6175309 171.9064 104.53416)">
                <path id="path2754" fill="#000000" fill-rule="evenodd" stroke="none" d="M 224.17564 -209.30998 C 221.72949 -213.53387 218.16339 -217.30788 213.9816 -219.55347 C 202.34532 -225.8021 180.53665 -224.10152 154.58923 -168.22542 C 154.42586 -167.89731 143.25958 -138.67763 141.98721 -135.44942 C 139.95143 -130.28424 120.16157 -101.91122 110.69745 -97.44455 C 110.69745 -97.44455 113.87518 -105.09026 109.55612 -112.57113 C 105.23703 -120.052 100.73212 -122.38448 93.31641 -116.10812 C 85.90072 -109.83175 92.58472 -88.96496 104.22097 -82.71633 C 115.85723 -76.46771 137.5717 -77.0278 163.5191 -132.90392 C 163.69067 -133.24843 174.957 -163.62769 176.21536 -166.8204 C 178.2432 -171.96538 197.86458 -200.1136 207.37135 -204.74805 C 207.13663 -204.13504 204.6186 -194.83144 208.80272 -187.58437 C 213.12178 -180.10352 218.73325 -181.23108 226.14894 -187.50743 C 230.89961 -191.52823 228.53616 -201.78046 224.17564 -209.30998 Z"/>
            </g>
            <g filter="url(#filter6541)" transform="matrix(0.6175309 -0.8204903 0.8204903 0.6175309 170.59642 106.27468)">
                <path id="path2756" fill="#000000" fill-rule="evenodd" stroke="none" d="M 206 -214 C 188.9416 -210.90625 180.15384 -193.70383 171.75 -180.375 C 158.08041 -155.42154 152.87048 -125.48062 132.35045 -104.73516 C 126.877945 -98.27729 120.67555 -91.33328 112.21875 -89.03125 C 122.81813 -85.20545 131.30441 -95.05622 137.96875 -101.90625 C 156.59433 -123.411156 161.93414 -152.3271 175.15625 -176.87502 C 182.33926 -189.28973 191.47069 -201.22014 202.84375 -209.8125 C 204.37395 -211.38857 209.87033 -212.83743 209.59375 -213.625 C 208.41797 -213.9887 207.26443 -214.09311 206 -214 Z M 218 -207.25 C 218.66354 -201.90196 213.40375 -194.44109 219.15625 -190.78125 C 225.19421 -192.47884 222.6834 -200.26712 220.1875 -203.9375 C 219.52527 -204.87491 218.64359 -206.7719 218 -207.25 Z M 101.96875 -110.9375 C 97.765076 -106.990944 102.14669 -98.610634 103.875 -96.40625 C 104.25164 -100.458595 107.57577 -104.14938 105.15625 -108.25 C 104.61856 -109.43725 103.53804 -111.03373 101.96875 -110.9375 Z"/>
            </g>
            <g clip-path="url(#clipPath11119)" transform="matrix(0.6234609 -0.81599355 0.81599355 0.6234609 94.125305 182.38908)">
                <path id="rect2760" fill="#000000" stroke="none" d="M 247.13382 -157.33484 L 283.54984 -157.33484 L 283.54984 -120.91884 L 247.13382 -120.91884 L 247.13382 -157.33484 Z"/>
            </g>
            <g clip-path="url(#clipPath11115)" filter="url(#filter11105)" opacity="0.8888889" transform="matrix(0.6234609 -0.81599355 0.81599355 0.6234609 94.125305 182.38908)">
                <path id="path2762" fill="#000000" stroke="none" d="M 247.12498 -157.34375 L 247.12498 -120.90625 L 249.125 -120.90625 L 249.125 -155.34375 L 283.5625 -155.34375 L 283.5625 -157.34375 L 247.12498 -157.34375 Z"/>
            </g>
            <g clip-path="url(#clipPath11111)" filter="url(#filter11073)" opacity="0.8444443" transform="matrix(0.6234609 -0.81599355 0.81599355 0.6234609 94.125305 182.38908)">
                <path id="path2764" fill="#000000" stroke="none" d="M 281.5625 -157.34375 L 281.5625 -122.90624 L 247.12498 -122.90624 L 247.12498 -120.90625 L 283.5625 -120.90625 L 283.5625 -157.34375 L 281.5625 -157.34375 Z"/>
            </g>
            <path id="path2768" fill="#000000" stroke="none" d="M 132.93533 -126.09004 C 130.10904 -118.47785 134.7992 -109.14942 142.64487 -106.9335 C 149.14574 -104.84721 156.93652 -107.75759 160.19104 -113.862724 C 163.38171 -119.49233 162.56528 -127.160446 157.87561 -131.72102 C 153.53351 -136.19167 146.34119 -137.65546 140.71854 -134.80058 C 137.11298 -133.06563 134.1624 -129.93764 132.93533 -126.09004 Z"/>
            <g opacity="0.4312977">
                <path id="path2770" fill="#000000" stroke="none" d="M 140.19669 -132.80145 C 137.8545 -126.17687 137.68353 -122.0992 141.56516 -114.99745 C 144.72151 -109.22262 149.43823 -106.59974 148.82025 -106.53073 C 147.26796 -106.35736 136.56151 -106.2107 133.19868 -117.51829 C 130.13097 -127.83357 139.50877 -134.34036 141.31953 -134.60614"/>
            </g>
        </g>
        <g id="layer1" transform="matrix(0.8057349 -1.0705498 1.0705498 0.8057349 -463.13727 65.23231)">
            <g id="g11138" transform="matrix(0.7664194 0 0 0.7664194 -4.7078915 247.90099)">
                <g clip-path="url(#clipPath6467)">
                    <path id="rect7099" fill="#c3c3c3" stroke="url(#linearGradient4429)" stroke-width="5.3166814" d="M 171.59375 -167.8125 L 153.4375 -131.09375 C 153.4375 -131.09375 240.05975 -44.59221 260.53125 61.53125 C 263.78903 59.713413 267.5381 58.6875 271.53125 58.6875 C 283.99673 58.687504 294.11734 68.78455 294.15625 81.25 L 294.15625 81.3125 C 294.15625 93.802826 284.02158 103.93749 271.53125 103.93749 C 269.20004 103.93749 266.9604 103.59315 264.84375 102.9375 C 265.00284 118.53432 263.43643 134.33614 259.71875 150.1875 C 279.93176 155.71176 336.35553 161.63753 367.0625 234.84375 C 388.95187 159.67792 354.1571 -29.134108 171.59375 -167.8125 Z"/>
                </g>
                <g clip-path="url(#clipPath6461)" filter="url(#filter6450)">
                    <path id="path5425" fill="none" stroke="#ffffff" stroke-width="16.917" d="M 334.53558 241.91483 C 356.42496 166.749 321.6302 -22.06304 139.06683 -160.74142"/>
                </g>
                <g id="g4743" transform="matrix(1 0 0 1 -248.19447 50.20458)">
                    <g transform="matrix(1.1799262 1.0970267 -1.0970267 1.1799262 503.19318 -887.7848)">
                        <path id="path11077" fill="url(#radialGradient4431)" stroke="none" d="M 155.1771 350.48547 C 155.17754 358.26053 151.73218 364.56583 147.47952 364.57272 C 143.22685 364.5795 139.77542 358.28534 139.76836 350.5103 C 139.76128 342.73526 143.20125 336.42017 147.4539 336.40115 C 151.70654 336.38217 155.16335 342.66647 155.17706 350.4415"/>
                    </g>
                    <path id="path15994" fill="url(#linearGradient4433)" stroke="#5f3f31" stroke-width="1.2325034" d="M 314.4494 -319.11337 C 316.75284 -316.97174 313.8088 -310.08655 307.84836 -303.6757 L 302.69305 -298.13083 C 296.73264 -291.71997 290.07977 -288.28302 287.7763 -290.42465 C 285.47284 -292.56628 288.41687 -299.45148 294.37732 -305.86234 L 299.53262 -311.4072 C 305.49304 -317.81805 312.14594 -321.25497 314.4494 -319.11337 Z"/>
                    <path id="path15992" fill="url(#linearGradient4435)" stroke="#5f3f31" stroke-width="1.2325034" d="M 319.1691 -314.72525 C 321.47256 -312.58362 318.5285 -305.69843 312.56805 -299.2876 L 307.41278 -293.7427 C 301.45233 -287.33188 294.79947 -283.8949 292.496 -286.03653 C 290.19254 -288.17816 293.1366 -295.0634 299.09702 -301.4742 L 304.25232 -307.0191 C 310.21274 -313.42993 316.86563 -316.86688 319.1691 -314.72525 Z"/>
                    <path id="path15990" fill="url(#linearGradient4437)" stroke="#5f3f31" stroke-width="1.2325034" d="M 323.8888 -310.33713 C 326.19226 -308.1955 323.2482 -301.31033 317.28778 -294.89948 L 312.13248 -289.3546 C 306.17203 -282.94376 299.51917 -279.5068 297.2157 -281.64844 C 294.91226 -283.79007 297.8563 -290.67526 303.8167 -297.08612 L 308.97202 -302.63098 C 314.93246 -309.04184 321.58533 -312.47876 323.8888 -310.33713 Z"/>
                    <path id="path15988" fill="url(#linearGradient4439)" stroke="#5f3f31" stroke-width="1.2325034" d="M 328.6085 -305.94904 C 330.91196 -303.8074 327.9679 -296.9222 322.00748 -290.51138 L 316.85217 -284.9665 C 310.89175 -278.55566 304.2389 -275.1187 301.93542 -277.2603 C 299.63196 -279.40195 302.576 -286.28714 308.5364 -292.698 L 313.69174 -298.24286 C 319.65216 -304.65372 326.30505 -308.09064 328.6085 -305.94904 Z"/>
                    <path id="path15986" fill="url(#linearGradient4441)" stroke="#5f3f31" stroke-width="1.2325034" d="M 333.32822 -301.5609 C 335.63168 -299.41928 332.68762 -292.53412 326.7272 -286.12326 L 321.57187 -280.5784 C 315.61145 -274.16754 308.9586 -270.7306 306.65512 -272.87222 C 304.35165 -275.01385 307.2957 -281.89905 313.25613 -288.3099 L 318.41144 -293.85477 C 324.37186 -300.26563 331.02475 -303.70255 333.32822 -301.5609 Z"/>
                    <path id="path15984" fill="url(#linearGradient4443)" stroke="#5f3f31" stroke-width="1.2325034" d="M 338.0479 -297.17282 C 340.35138 -295.0312 337.40732 -288.146 331.4469 -281.73517 L 326.2916 -276.19028 C 320.33115 -269.77942 313.67828 -266.3425 311.37482 -268.48413 C 309.07135 -270.62573 312.0154 -277.51093 317.97583 -283.92178 L 323.13113 -289.46667 C 329.09158 -295.8775 335.74445 -299.31445 338.0479 -297.17282 Z"/>
                    <path id="path15982" fill="url(#linearGradient4445)" stroke="#5f3f31" stroke-width="1.2325034" d="M 342.7676 -292.7847 C 345.07108 -290.64307 342.12704 -283.7579 336.1666 -277.34705 L 331.0113 -271.8022 C 325.05087 -265.39133 318.39798 -261.95438 316.09454 -264.096 C 313.79108 -266.23764 316.7351 -273.12283 322.69553 -279.5337 L 327.85083 -285.07855 C 333.81128 -291.4894 340.46414 -294.92633 342.7676 -292.7847 Z"/>
                    <path id="path15980" fill="url(#linearGradient4447)" stroke="#5f3f31" stroke-width="1.2325034" d="M 347.48737 -288.3966 C 349.79083 -286.25497 346.84674 -279.36978 340.8863 -272.95895 L 335.731 -267.41406 C 329.77057 -261.00323 323.1177 -257.56628 320.81424 -259.7079 C 318.51077 -261.84952 321.4548 -268.73474 327.41525 -275.14557 L 332.57053 -280.69046 C 338.53098 -287.1013 345.18384 -290.53824 347.48737 -288.3966 Z"/>
                    <path id="path15978" fill="url(#linearGradient4449)" stroke="#5f3f31" stroke-width="1.2325034" d="M 352.207 -284.0085 C 354.51047 -281.86688 351.56644 -274.9817 345.60602 -268.57083 L 340.4507 -263.02597 C 334.49026 -256.6151 327.8374 -253.17818 325.53394 -255.3198 C 323.23047 -257.46143 326.17453 -264.34662 332.13495 -270.75745 L 337.29025 -276.30234 C 343.25067 -282.71317 349.90353 -286.15012 352.207 -284.0085 Z"/>
                    <path id="path15976" fill="url(#linearGradient4451)" stroke="#5f3f31" stroke-width="1.2325034" d="M 356.9267 -279.6204 C 359.23016 -277.47876 356.28613 -270.59357 350.3257 -264.18274 L 345.1704 -258.63785 C 339.21 -252.227 332.5571 -248.79005 330.25363 -250.93169 C 327.95016 -253.07332 330.89423 -259.9585 336.85464 -266.36935 L 342.00995 -271.9142 C 347.9704 -278.32507 354.62323 -281.76202 356.9267 -279.6204 Z"/>
                    <path id="path15974" fill="url(#linearGradient4453)" stroke="#5f3f31" stroke-width="1.2325034" d="M 361.6464 -275.23227 C 363.9499 -273.09067 361.0059 -266.20547 355.0454 -259.79462 L 349.8901 -254.24976 C 343.9297 -247.8389 337.27682 -244.40198 334.97336 -246.54358 C 332.6699 -248.68523 335.61392 -255.5704 341.57437 -261.98126 L 346.72964 -267.52612 C 352.6901 -273.93698 359.343 -277.3739 361.6464 -275.23227 Z"/>
                    <path id="path15972" fill="url(#linearGradient4455)" stroke="#5f3f31" stroke-width="1.2325034" d="M 366.36615 -270.84418 C 368.66962 -268.70255 365.7256 -261.81735 359.7651 -255.40651 L 354.6098 -249.86163 C 348.64938 -243.4508 341.99652 -240.01387 339.69305 -242.15547 C 337.3896 -244.29712 340.33362 -251.18231 346.29407 -257.59314 L 351.44937 -263.13803 C 357.4098 -269.54886 364.06268 -272.9858 366.36615 -270.84418 Z"/>
                    <path id="path15970" fill="url(#linearGradient4457)" stroke="#5f3f31" stroke-width="1.2325034" d="M 371.08585 -266.4561 C 373.3893 -264.31445 370.44528 -257.42926 364.4848 -251.01842 L 359.32956 -245.47353 C 353.36908 -239.0627 346.7162 -235.62573 344.41272 -237.76738 C 342.10928 -239.90898 345.05334 -246.7942 351.01376 -253.20505 L 356.16907 -258.7499 C 362.1295 -265.16077 368.78238 -268.5977 371.08585 -266.4561 Z"/>
                    <path id="path15968" fill="url(#linearGradient4459)" stroke="#5f3f31" stroke-width="1.2325034" d="M 375.80554 -262.06796 C 378.109 -259.92633 375.16492 -253.04114 369.2045 -246.6303 L 364.04926 -241.08542 C 358.08878 -234.67459 351.43594 -231.23763 349.13245 -233.37927 C 346.829 -235.52087 349.77304 -242.4061 355.73346 -248.81693 L 360.88882 -254.36183 C 366.84924 -260.77264 373.50208 -264.2096 375.80554 -262.06796 Z"/>
                    <path id="path15966" fill="url(#linearGradient4461)" stroke="#5f3f31" stroke-width="1.2325034" d="M 380.52524 -257.67987 C 382.8287 -255.53822 379.88467 -248.65305 373.9242 -242.24219 L 368.7689 -236.69733 C 362.80847 -230.28648 356.15564 -226.84953 353.85217 -228.99113 C 351.5487 -231.13278 354.49274 -238.01796 360.45322 -244.42882 L 365.60846 -249.9737 C 371.56894 -256.38455 378.2218 -259.82147 380.52524 -257.67987 Z"/>
                    <path id="path15964" fill="url(#linearGradient4463)" stroke="#5f3f31" stroke-width="1.2325034" d="M 385.24496 -253.29175 C 387.54846 -251.15012 384.60437 -244.26492 378.64395 -237.85411 L 373.4886 -232.3092 C 367.52817 -225.89838 360.87534 -222.46143 358.57187 -224.60303 C 356.2684 -226.74467 359.2125 -233.62985 365.1729 -240.04074 L 370.32816 -245.58559 C 376.28864 -251.99644 382.9415 -255.43338 385.24496 -253.29175 Z"/>
                    <path id="path15962" fill="url(#linearGradient4465)" stroke="#5f3f31" stroke-width="1.2325034" d="M 389.9647 -248.90364 C 392.26816 -246.76202 389.32407 -239.87682 383.36365 -233.46597 L 378.20834 -227.9211 C 372.24792 -221.51025 365.59503 -218.07332 363.29156 -220.21492 C 360.98813 -222.35657 363.93213 -229.24176 369.8926 -235.6526 L 375.04785 -241.19748 C 381.00833 -247.60834 387.66122 -251.04527 389.9647 -248.90364 Z"/>
                    <path id="path15960" fill="url(#linearGradient4467)" stroke="#5f3f31" stroke-width="1.2325034" d="M 394.6844 -244.51553 C 396.98785 -242.37392 394.0438 -235.48872 388.08334 -229.07787 L 382.92804 -223.53299 C 376.96762 -217.12216 370.31476 -213.68518 368.0113 -215.82683 C 365.70782 -217.96846 368.65182 -224.85365 374.6123 -231.2645 L 379.7676 -236.80939 C 385.72803 -243.22021 392.38092 -246.65717 394.6844 -244.51553 Z"/>
                    <path id="path15958" fill="url(#linearGradient4469)" stroke="#5f3f31" stroke-width="1.2325034" d="M 399.40408 -240.12743 C 401.70755 -237.9858 398.7635 -231.10062 392.80304 -224.68977 L 387.64774 -219.14488 C 381.68732 -212.73404 375.0345 -209.2971 372.73102 -211.43872 C 370.42752 -213.58035 373.37158 -220.46555 379.332 -226.87639 L 384.4873 -232.42128 C 390.44772 -238.83212 397.10062 -242.26906 399.40408 -240.12743 Z"/>
                    <path id="path15956" fill="url(#linearGradient4471)" stroke="#5f3f31" stroke-width="1.2325034" d="M 404.12378 -235.73932 C 406.42725 -233.59769 403.4832 -226.7125 397.52277 -220.30167 L 392.36746 -214.75677 C 386.407 -208.34593 379.75418 -204.909 377.4507 -207.05061 C 375.14725 -209.19225 378.09128 -216.07744 384.0517 -222.4883 L 389.207 -228.03317 C 395.16745 -234.44402 401.8203 -237.88094 404.12378 -235.73932 Z"/>
                    <path id="path15954" fill="url(#linearGradient4473)" stroke="#5f3f31" stroke-width="1.2325034" d="M 408.84348 -231.35121 C 411.14694 -229.20958 408.20288 -222.3244 402.2425 -215.91356 L 397.08716 -210.36868 C 391.12674 -203.95782 384.47388 -200.52087 382.1704 -202.6625 C 379.86694 -204.80414 382.81097 -211.68933 388.7714 -218.10019 L 393.9267 -223.64503 C 399.88715 -230.05591 406.54 -233.49284 408.84348 -231.35121 Z"/>
                    <path id="path15952" fill="url(#linearGradient4475)" stroke="#5f3f31" stroke-width="1.2325034" d="M 413.5632 -226.9631 C 415.86664 -224.82149 412.9226 -217.9363 406.9622 -211.52545 L 401.80685 -205.98058 C 395.84647 -199.56972 389.19357 -196.13278 386.8901 -198.2744 C 384.58664 -200.41603 387.53067 -207.30122 393.49112 -213.71208 L 398.64642 -219.25693 C 404.60684 -225.66782 411.25974 -229.10474 413.5632 -226.9631 Z"/>
                    <path id="path15950" fill="url(#linearGradient4477)" stroke="#5f3f31" stroke-width="1.2325034" d="M 418.2829 -222.575 C 420.58636 -220.43336 417.6423 -213.5482 411.6819 -207.13731 L 406.52658 -201.59247 C 400.56616 -195.18161 393.91327 -191.74467 391.6098 -193.8863 C 389.30634 -196.02792 392.2504 -202.91312 398.21082 -209.32397 L 403.36612 -214.86884 C 409.32654 -221.27971 415.97943 -224.71661 418.2829 -222.575 Z"/>
                    <path id="rect10025" fill="url(#linearGradient4479)" stroke="#5f3f31" stroke-width="1.2325034" d="M 423.0026 -218.18689 C 425.30606 -216.04526 422.362 -209.1601 416.40158 -202.74924 L 411.24628 -197.20436 C 405.28586 -190.7935 398.63297 -187.35657 396.32953 -189.49818 C 394.02606 -191.63982 396.9701 -198.52502 402.9305 -204.93587 L 408.08585 -210.48073 C 414.04623 -216.89157 420.69913 -220.32854 423.0026 -218.18689 Z"/>
                    <path id="path8389" fill="url(#radialGradient4481)" stroke="none" d="M 277.13608 -296.67422 C 273.1154 -301.74503 271.50546 -307.48053 273.5425 -309.47668 C 275.5795 -311.4728 280.4959 -308.97748 284.5166 -303.90668 C 288.40683 -299.00043 294.56824 -303.9138 287.72635 -296.72165 C 282.12027 -290.82858 280.68005 -291.05566 276.661 -296.1101"/>
                    <g filter="url(#filter3321)" transform="matrix(0.09307168 0.1478694 -0.1614763 0.1016361 314.51782 -359.54767)">
                        <path id="path2309" fill="#ffffff" stroke="none" d="M 142.36876 165.39221 L 130.68164 163.08269 L 141.15363 231.4999 L 121.92367 164.90726 L 112.13114 171.69173 L 114.44068 160.0046 L 45.393494 171.10654 L 112.6161 151.24663 L 105.83164 141.4541 L 117.51875 143.76364 L 107.67672 77.8662 L 126.27672 141.93906 L 136.06924 135.1546 L 133.75972 146.8417 L 201.547 140.14944 L 135.58429 155.59969 L 142.36876 165.39221 Z"/>
                    </g>
                </g>
                <g filter="url(#filter3321)" transform="matrix(-0.00288502 0.2786991 -0.23703 -0.00245362 290.2225 -88.97594)">
                    <path id="path3325" fill="#ffffff" stroke="none" d="M 142.36876 165.39221 L 130.68164 163.08269 L 141.15363 231.4999 L 121.92367 164.90726 L 112.13114 171.69173 L 114.44068 160.0046 L 45.393494 171.10654 L 112.6161 151.24663 L 105.83164 141.4541 L 117.51875 143.76364 L 107.67672 77.8662 L 126.27672 141.93906 L 136.06924 135.1546 L 133.75972 146.8417 L 201.547 140.14944 L 135.58429 155.59969 L 142.36876 165.39221 Z"/>
                </g>
                <g filter="url(#filter3321)" transform="matrix(0.06560587 0.2237996 -0.240149 0.07039862 363.1514 143.20596)">
                    <path id="path3327" fill="#ffffff" stroke="none" d="M 142.36876 165.39221 L 130.68164 163.08269 L 141.15363 231.4999 L 121.92367 164.90726 L 112.13114 171.69173 L 114.44068 160.0046 L 45.393494 171.10654 L 112.6161 151.24663 L 105.83164 141.4541 L 117.51875 143.76364 L 107.67672 77.8662 L 126.27672 141.93906 L 136.06924 135.1546 L 133.75972 146.8417 L 201.547 140.14944 L 135.58429 155.59969 L 142.36876 165.39221 Z"/>
                </g>
                <g opacity="0.37222224">
                    <path id="path8980" fill="#c3c3c3" stroke="none" d="M 156.4375 -131.46875 C 197.18892 -87.70374 231.23776 -36.668484 251.6875 19.78125 C 256.4587 32.246746 259.53506 46.286377 262.9375 58.46875 C 276.84393 52.284397 294.654 62.371407 296.4375 77.5625 C 299.43536 92.9311 284.72995 108.21272 269.25 105.78125 C 264.77658 104.92217 268.75162 114.00106 267.11252 116.77843 C 266.47247 127.54375 265.05148 138.23267 262.65625 148.75 C 287.29105 153.84372 311.55695 162.26122 330.78125 179.03125 C 325.00156 97.1348 301.39682 13.658657 252.60628 -51.595013 C 228.19138 -84.77869 199.35332 -118.61499 168.44667 -144.72792 C 168.01959 -143.88417 156.86458 -132.3125 156.4375 -131.46875 Z"/>
                </g>
                <g id="g6545">
                    <g clip-path="url(#clipPath4786)" transform="matrix(1 0 0 1 2.1213202 0)">
                        <path id="path3656" fill="#666666" fill-rule="evenodd" stroke="none" d="M 224.17564 -209.30998 C 221.72949 -213.53387 218.16339 -217.30788 213.9816 -219.55347 C 202.34532 -225.8021 180.53665 -224.10152 154.58923 -168.22542 C 154.42586 -167.89731 143.25958 -138.67763 141.98721 -135.44942 C 139.95143 -130.28424 120.16157 -101.91122 110.69745 -97.44455 C 110.69745 -97.44455 113.87518 -105.09026 109.55612 -112.57113 C 105.23703 -120.052 100.73212 -122.38448 93.31641 -116.10812 C 85.90072 -109.83175 92.58472 -88.96496 104.22097 -82.71633 C 115.85723 -76.46771 137.5717 -77.0278 163.5191 -132.90392 C 163.69067 -133.24843 174.957 -163.62769 176.21536 -166.8204 C 178.2432 -171.96538 197.86458 -200.1136 207.37135 -204.74805 C 207.13663 -204.13504 204.6186 -194.83144 208.80272 -187.58437 C 213.12178 -180.10352 218.73325 -181.23108 226.14894 -187.50743 C 230.89961 -191.52823 228.53616 -201.78046 224.17564 -209.30998 Z"/>
                    </g>
                    <g filter="url(#filter6541)">
                        <path id="path6490" fill="#ffffff" fill-rule="evenodd" stroke="none" d="M 206 -214 C 188.9416 -210.90625 180.15384 -193.70383 171.75 -180.375 C 158.08041 -155.42154 152.87048 -125.48062 132.35045 -104.73516 C 126.877945 -98.27729 120.67555 -91.33328 112.21875 -89.03125 C 122.81813 -85.20545 131.30441 -95.05622 137.96875 -101.90625 C 156.59433 -123.411156 161.93414 -152.3271 175.15625 -176.87502 C 182.33926 -189.28973 191.47069 -201.22014 202.84375 -209.8125 C 204.37395 -211.38857 209.87033 -212.83743 209.59375 -213.625 C 208.41797 -213.9887 207.26443 -214.09311 206 -214 Z M 218 -207.25 C 218.66354 -201.90196 213.40375 -194.44109 219.15625 -190.78125 C 225.19421 -192.47884 222.6834 -200.26712 220.1875 -203.9375 C 219.52527 -204.87491 218.64359 -206.7719 218 -207.25 Z M 101.96875 -110.9375 C 97.765076 -106.990944 102.14669 -98.610634 103.875 -96.40625 C 104.25164 -100.458595 107.57577 -104.14938 105.15625 -108.25 C 104.61856 -109.43725 103.53804 -111.03373 101.96875 -110.9375 Z"/>
                    </g>
                </g>
                <g id="g11125" transform="matrix(0.9999738 0.00724705 -0.00724705 0.9999738 -104.00128 -14.926588)">
                    <g clip-path="url(#clipPath11119)">
                        <path id="rect10064" fill="#6b6b6b" stroke="none" d="M 247.13382 -157.33484 L 283.5498 -157.33484 L 283.5498 -120.91884 L 247.13382 -120.91884 Z"/>
                    </g>
                    <g clip-path="url(#clipPath11115)" filter="url(#filter11105)" opacity="0.8888889">
                        <path id="rect10066" fill="#f9f9f9" stroke="none" d="M 247.12498 -157.34375 L 247.12498 -120.90625 L 249.125 -120.90625 L 249.125 -155.34375 L 283.5625 -155.34375 L 283.5625 -157.34375 L 247.12498 -157.34375 Z"/>
                    </g>
                    <g clip-path="url(#clipPath11111)" filter="url(#filter11073)" opacity="0.8444443">
                        <path id="rect10071" fill="#241c1c" stroke="none" d="M 281.5625 -157.34375 L 281.5625 -122.90624 L 247.12498 -122.90624 L 247.12498 -120.90625 L 283.5625 -120.90625 L 283.5625 -157.34375 L 281.5625 -157.34375 Z"/>
                    </g>
                    <g id="g3394" transform="matrix(0.3265611 -0.106124 0.106124 0.3265611 121.5599 -111.83883)">
                        <path id="path5634" fill="url(#radialGradient4483)" stroke="none" d="M 424.44427 13.892939 C 401.41983 13.494923 380.87695 34.820652 382.3316 57.89538 C 382.86752 77.25034 397.98486 95.354355 417.38046 98.3161 C 435.4438 101.55462 455.19 92.15462 462.97794 75.316795 C 470.85223 59.49346 468.00024 38.874435 455.07166 26.518589 C 447.03726 18.505274 435.8924 13.555089 424.44427 13.892939 Z"/>
                        <g opacity="0.4312977">
                            <path id="path5636" fill="url(#linearGradient4485)" stroke="none" d="M 449.23233 27.003698 C 429.30554 26.971468 418.23563 30.351236 402.88898 47.418533 C 390.4098 61.296913 387.83133 76.38369 387.06516 74.79538 C 385.14063 70.80566 374.67337 42.300735 401.76004 22.663614 C 426.46976 4.7497597 452.70206 23.715229 455.11697 28.309425"/>
                        </g>
                    </g>
                    <g filter="url(#filter3321)" opacity="0.74444443" transform="matrix(-0.00126521 0.1222225 -0.1039487 -0.00107603 279.68555 -160.13164)">
                        <path id="path11123" fill="#ffffff" stroke="none" d="M 142.36876 165.39221 L 130.68164 163.08269 L 141.15363 231.4999 L 121.92367 164.90726 L 112.13114 171.69173 L 114.44068 160.0046 L 45.393494 171.10654 L 112.6161 151.24663 L 105.83164 141.4541 L 117.51875 143.76364 L 107.67672 77.8662 L 126.27672 141.93906 L 136.06924 135.1546 L 133.75972 146.8417 L 201.547 140.14944 L 135.58429 155.59969 L 142.36876 165.39221 Z"/>
                    </g>
                </g>
            </g>
        </g>
    </g>
</svg>
